<?xml version="1.0" standalone="no"?>
<!DOCTYPE svg PUBLIC "-//W3C//DTD SVG 20010904//EN"
 "http://www.w3.org/TR/2001/REC-SVG-20010904/DTD/svg10.dtd">
<svg version="1.0" xmlns="http://www.w3.org/2000/svg"
 width="1024.000000pt" height="1024.000000pt" viewBox="0 0 1024.000000 1024.000000"
 preserveAspectRatio="xMidYMid meet">
<metadata>
Created by potrace 1.14, written by Peter Selinger 2001-2017
</metadata>
<g transform="translate(0.000000,1024.000000) scale(0.100000,-0.100000)"
fill="#000000" stroke="none">
<path d="M0 5120 l0 -5120 5120 0 5120 0 0 5120 0 5120 -5120 0 -5120 0 0
-5120z m5862 3659 c606 -41 1193 -196 1641 -432 l97 -51 0 -41 c0 -22 9 -357
20 -745 11 -388 20 -726 20 -752 l0 -48 -359 0 c-225 0 -362 4 -366 10 -3 5
-62 293 -130 640 -68 347 -127 635 -130 639 -9 16 -253 111 -372 145 -222 64
-347 80 -618 80 -206 0 -258 -3 -368 -23 -654 -116 -1158 -471 -1507 -1060
-317 -536 -460 -1165 -460 -2021 0 -1040 224 -1810 683 -2346 300 -350 671
-583 1090 -684 182 -44 302 -60 507 -67 263 -8 459 13 733 79 l127 31 0 356
c0 358 -19 1913 -23 1917 -3 3 -977 104 -1000 104 -15 0 -17 24 -17 250 l0
250 1485 0 1485 0 0 -248 0 -249 -262 -27 c-145 -15 -277 -30 -294 -33 l-31
-5 -7 -141 c-3 -78 -9 -614 -12 -1190 l-7 -1048 -168 -85 c-465 -232 -954
-397 -1404 -473 -411 -69 -936 -79 -1360 -25 -696 88 -1328 360 -1820 785
-640 552 -1033 1307 -1154 2217 -63 473 -51 1030 33 1483 185 998 729 1803
1555 2303 469 285 1057 460 1691 505 172 12 528 12 702 0z"/>
</g>
</svg>
